<?xml version="1.0" encoding="UTF-8"?>
<svg xmlns="http://www.w3.org/2000/svg" xmlns:xlink="http://www.w3.org/1999/xlink" width="187.5pt" height="187.499995pt" viewBox="0 0 187.5 187.499995" version="1.2">
<defs>
<clipPath id="clip1">
  <path d="M 22.894531 18.75 L 161 18.75 L 161 168.75 L 22.894531 168.75 Z M 22.894531 18.75 "/>
</clipPath>
</defs>
<g id="surface1">
<g clip-path="url(#clip1)" clip-rule="nonzero">
<path style=" stroke:none;fill-rule:nonzero;fill:rgb(42.349243%,78.039551%,19.999695%);fill-opacity:1;" d="M 158.140625 116.707031 L 122.523438 72.195312 C 122.519531 72.195312 122.519531 72.191406 122.519531 72.191406 L 116.445312 64.601562 L 114.097656 61.667969 C 113.828125 61.332031 113.4375 61.117188 113.011719 61.070312 L 98.882812 59.5 C 98.9375 58.640625 98.972656 57.773438 98.972656 56.910156 C 98.972656 35.933594 81.90625 18.867188 60.929688 18.867188 C 39.953125 18.867188 22.886719 35.933594 22.886719 56.910156 C 22.886719 75.808594 36.636719 91.695312 55.128906 94.511719 L 53.558594 108.640625 C 53.546875 108.75 53.546875 108.855469 53.558594 108.964844 C 53.5625 109.03125 53.582031 109.097656 53.59375 109.164062 C 53.601562 109.199219 53.605469 109.238281 53.617188 109.273438 C 53.636719 109.347656 53.667969 109.414062 53.699219 109.480469 C 53.710938 109.507812 53.71875 109.539062 53.734375 109.566406 C 53.78125 109.660156 53.835938 109.746094 53.902344 109.828125 C 53.902344 109.828125 53.902344 109.832031 53.90625 109.832031 L 97.949219 164.871094 C 99.632812 166.976562 102.039062 168.300781 104.71875 168.601562 C 105.101562 168.644531 105.480469 168.664062 105.859375 168.664062 C 108.140625 168.664062 110.34375 167.898438 112.152344 166.449219 L 156.5625 130.910156 C 160.914062 127.429688 161.621094 121.058594 158.140625 116.707031 Z M 26.125 56.910156 C 26.125 37.722656 41.738281 22.109375 60.929688 22.109375 C 80.121094 22.109375 95.734375 37.722656 95.734375 56.914062 C 95.734375 57.65625 95.707031 58.398438 95.660156 59.140625 L 80.917969 57.503906 C 80.917969 57.503906 80.914062 57.503906 80.914062 57.503906 L 61.105469 55.304688 C 60.679688 55.257812 60.25 55.378906 59.914062 55.648438 C 59.582031 55.917969 59.367188 56.308594 59.316406 56.734375 L 57.121094 76.527344 C 57.121094 76.53125 57.121094 76.535156 57.121094 76.542969 L 55.484375 91.292969 C 38.636719 88.660156 26.125 74.15625 26.125 56.910156 Z M 154.539062 128.382812 L 110.128906 163.921875 C 108.695312 165.066406 106.902344 165.585938 105.078125 165.382812 C 103.257812 165.179688 101.621094 164.28125 100.476562 162.847656 L 56.855469 108.332031 L 58.519531 93.300781 C 58.519531 93.300781 58.523438 93.296875 58.523438 93.292969 C 58.523438 93.289062 58.523438 93.285156 58.523438 93.28125 L 62.359375 58.703125 L 80.558594 60.722656 L 95.304688 62.359375 C 94.53125 67.265625 92.699219 71.96875 89.949219 76.117188 C 88.289062 75.191406 86.378906 74.660156 84.34375 74.660156 C 77.992188 74.660156 72.828125 79.824219 72.828125 86.175781 C 72.828125 87.875 73.199219 89.488281 73.863281 90.941406 C 73.871094 90.960938 73.871094 90.980469 73.882812 91 C 73.894531 91.03125 73.910156 91.054688 73.925781 91.082031 C 75.769531 94.988281 79.746094 97.695312 84.347656 97.695312 C 90.699219 97.695312 95.863281 92.527344 95.863281 86.175781 C 95.863281 83.023438 94.589844 80.164062 92.53125 78.082031 C 95.632812 73.460938 97.683594 68.207031 98.527344 62.71875 L 111.988281 64.214844 L 155.613281 118.730469 C 157.976562 121.6875 157.496094 126.015625 154.539062 128.382812 Z M 90.578125 80.738281 C 91.851562 82.191406 92.625 84.097656 92.625 86.175781 C 92.625 90.742188 88.910156 94.457031 84.347656 94.457031 C 81.609375 94.457031 79.183594 93.125 77.671875 91.074219 C 82.671875 88.621094 87.082031 85.089844 90.578125 80.738281 Z M 76.300781 88.140625 C 76.148438 87.511719 76.066406 86.855469 76.066406 86.175781 C 76.066406 81.613281 79.78125 77.898438 84.34375 77.898438 C 85.664062 77.898438 86.910156 78.207031 88.015625 78.757812 C 84.832031 82.703125 80.835938 85.90625 76.300781 88.140625 Z M 76.300781 88.140625 "/>
</g>
<path style=" stroke:none;fill-rule:nonzero;fill:rgb(42.349243%,78.039551%,19.999695%);fill-opacity:1;" d="M 135.359375 120.933594 L 84.660156 115.117188 C 83.769531 115.019531 82.96875 115.65625 82.867188 116.542969 C 82.765625 117.429688 83.402344 118.234375 84.289062 118.335938 L 134.992188 124.148438 C 135.054688 124.15625 135.117188 124.160156 135.175781 124.160156 C 135.988281 124.160156 136.6875 123.550781 136.785156 122.726562 C 136.886719 121.835938 136.25 121.035156 135.359375 120.933594 Z M 135.359375 120.933594 "/>
<path style=" stroke:none;fill-rule:nonzero;fill:rgb(42.349243%,78.039551%,19.999695%);fill-opacity:1;" d="M 111.886719 111.425781 C 117.273438 111.425781 121.65625 107.042969 121.65625 101.652344 C 121.65625 96.265625 117.273438 91.882812 111.886719 91.882812 C 106.5 91.882812 102.117188 96.265625 102.117188 101.652344 C 102.117188 107.042969 106.5 111.425781 111.886719 111.425781 Z M 111.886719 95.121094 C 115.488281 95.121094 118.417969 98.050781 118.417969 101.652344 C 118.417969 105.253906 115.488281 108.1875 111.886719 108.1875 C 108.285156 108.1875 105.355469 105.253906 105.355469 101.652344 C 105.355469 98.050781 108.285156 95.121094 111.886719 95.121094 Z M 111.886719 95.121094 "/>
<path style=" stroke:none;fill-rule:nonzero;fill:rgb(42.349243%,78.039551%,19.999695%);fill-opacity:1;" d="M 107.757812 127.84375 C 105.5625 127.84375 103.40625 128.597656 101.6875 129.964844 C 97.46875 133.316406 96.761719 139.472656 100.113281 143.691406 C 101.976562 146.039062 104.765625 147.386719 107.769531 147.386719 C 109.960938 147.386719 112.121094 146.632812 113.839844 145.265625 C 115.882812 143.644531 117.171875 141.320312 117.472656 138.726562 C 117.769531 136.136719 117.039062 133.582031 115.414062 131.539062 C 113.550781 129.191406 110.761719 127.84375 107.757812 127.84375 Z M 114.253906 138.359375 C 114.054688 140.09375 113.191406 141.644531 111.824219 142.730469 C 110.660156 143.65625 109.253906 144.148438 107.769531 144.148438 C 105.761719 144.148438 103.894531 143.246094 102.648438 141.679688 C 100.410156 138.859375 100.878906 134.742188 103.699219 132.5 C 104.867188 131.574219 106.273438 131.082031 107.757812 131.082031 C 109.765625 131.082031 111.632812 131.984375 112.878906 133.554688 C 113.964844 134.917969 114.453125 136.625 114.253906 138.359375 Z M 114.253906 138.359375 "/>
</g>
</svg>
