<?xml version="1.0" encoding="UTF-8"?>
<svg xmlns="http://www.w3.org/2000/svg" xmlns:xlink="http://www.w3.org/1999/xlink" width="187.5pt" height="187.499995pt" viewBox="0 0 187.5 187.499995" version="1.2">
<defs>
<clipPath id="clip1">
  <path d="M 35 124 L 86 124 L 86 168.75 L 35 168.75 Z M 35 124 "/>
</clipPath>
<clipPath id="clip2">
  <path d="M 98 136 L 149 136 L 149 168.75 L 98 168.75 Z M 98 136 "/>
</clipPath>
<clipPath id="clip3">
  <path d="M 112 95 L 155.0625 95 L 155.0625 134 L 112 134 Z M 112 95 "/>
</clipPath>
</defs>
<g id="surface1">
<g clip-path="url(#clip1)" clip-rule="nonzero">
<path style=" stroke:none;fill-rule:nonzero;fill:rgb(42.349243%,78.039551%,19.999695%);fill-opacity:1;" d="M 82.34375 135.425781 L 62.554688 161.574219 L 62.4375 146.515625 C 62.4375 145.816406 62.085938 145.230469 61.5 144.765625 C 61.03125 144.414062 60.566406 144.296875 60.097656 144.296875 C 59.980469 144.296875 59.746094 144.296875 59.628906 144.296875 L 42.414062 148.035156 L 59.160156 129.355469 C 58.457031 127.605469 57.988281 125.738281 57.636719 124.101562 L 36.558594 147.800781 C 35.621094 148.851562 35.503906 150.367188 36.207031 151.652344 C 36.910156 152.9375 38.316406 153.519531 39.722656 153.402344 C 39.839844 153.402344 39.839844 153.402344 39.957031 153.402344 L 57.871094 149.433594 L 58.105469 165.195312 C 58.222656 166.59375 59.160156 167.878906 60.566406 168.347656 C 60.914062 168.460938 61.265625 168.460938 61.617188 168.460938 C 62.671875 168.460938 63.726562 167.996094 64.429688 167.0625 L 85.859375 138.578125 C 84.453125 137.644531 83.28125 136.476562 82.34375 135.425781 Z M 82.34375 135.425781 "/>
</g>
<g clip-path="url(#clip2)" clip-rule="nonzero">
<path style=" stroke:none;fill-rule:nonzero;fill:rgb(42.349243%,78.039551%,19.999695%);fill-opacity:1;" d="M 139.253906 138.8125 L 133.046875 138.8125 L 141.363281 148.148438 L 124.148438 144.414062 C 123.445312 144.296875 122.742188 144.414062 122.15625 144.882812 C 121.574219 145.347656 121.222656 145.933594 121.222656 146.632812 L 121.105469 161.574219 L 101.78125 136.007812 C 100.847656 137.175781 99.675781 138.226562 98.386719 139.160156 L 119.464844 167.179688 C 120.167969 167.996094 121.105469 168.460938 122.15625 168.460938 C 122.507812 168.460938 122.859375 168.460938 123.210938 168.347656 C 124.617188 167.878906 125.554688 166.710938 125.671875 165.195312 L 125.90625 149.550781 L 143.820312 153.519531 C 143.9375 153.519531 143.9375 153.519531 144.054688 153.519531 C 145.460938 153.753906 146.867188 153.054688 147.566406 151.769531 C 148.269531 150.484375 148.152344 148.96875 147.21875 147.800781 Z M 139.253906 138.8125 "/>
</g>
<path style=" stroke:none;fill-rule:nonzero;fill:rgb(42.349243%,78.039551%,19.999695%);fill-opacity:1;" d="M 91.828125 43.550781 C 73.09375 43.550781 57.871094 58.730469 57.871094 77.40625 C 57.871094 96.085938 73.09375 111.261719 91.828125 111.261719 C 110.566406 111.261719 125.789062 96.085938 125.789062 77.40625 C 125.789062 58.730469 110.566406 43.550781 91.828125 43.550781 Z M 91.828125 106.589844 C 75.671875 106.589844 62.554688 93.515625 62.554688 77.40625 C 62.554688 61.296875 75.671875 48.222656 91.828125 48.222656 C 107.988281 48.222656 121.105469 61.296875 121.105469 77.40625 C 121.105469 93.515625 107.988281 106.589844 91.828125 106.589844 Z M 91.828125 106.589844 "/>
<path style=" stroke:none;fill-rule:nonzero;fill:rgb(42.349243%,78.039551%,19.999695%);fill-opacity:1;" d="M 107.402344 71.804688 L 98.035156 70.519531 L 93.9375 62.347656 C 93.585938 61.53125 92.765625 61.0625 91.828125 61.0625 C 90.894531 61.0625 90.191406 61.53125 89.722656 62.347656 L 85.625 70.519531 L 76.253906 71.804688 C 75.320312 71.921875 74.617188 72.503906 74.382812 73.4375 C 74.148438 74.253906 74.382812 75.1875 74.96875 75.890625 L 81.640625 82.191406 L 80.121094 91.066406 C 80.003906 91.882812 80.355469 92.816406 81.058594 93.398438 C 81.757812 93.984375 82.695312 93.984375 83.515625 93.632812 L 91.828125 89.429688 L 100.144531 93.632812 C 100.496094 93.75 100.847656 93.867188 101.199219 93.867188 C 101.664062 93.867188 102.132812 93.75 102.601562 93.398438 C 103.304688 92.816406 103.65625 92 103.539062 91.066406 L 102.015625 82.078125 L 108.691406 75.773438 C 109.394531 75.1875 109.628906 74.253906 109.277344 73.320312 C 109.042969 72.503906 108.222656 71.921875 107.402344 71.804688 Z M 97.800781 79.625 C 97.214844 80.207031 96.980469 80.910156 97.097656 81.726562 L 98.035156 87.210938 L 92.765625 84.527344 C 92.414062 84.410156 92.0625 84.292969 91.710938 84.292969 C 91.363281 84.292969 91.011719 84.410156 90.660156 84.527344 L 85.390625 87.210938 L 86.324219 81.726562 C 86.441406 80.910156 86.210938 80.207031 85.625 79.625 L 81.523438 75.773438 L 87.261719 74.957031 C 87.964844 74.839844 88.667969 74.371094 89.019531 73.671875 L 91.59375 68.535156 L 94.171875 73.671875 C 94.523438 74.371094 95.226562 74.839844 95.929688 74.957031 L 101.664062 75.773438 Z M 97.800781 79.625 "/>
<path style=" stroke:none;fill-rule:nonzero;fill:rgb(42.349243%,78.039551%,19.999695%);fill-opacity:1;" d="M 103.773438 126.085938 C 104.710938 125.851562 106.585938 126.785156 108.222656 127.605469 L 108.222656 122.46875 C 106.351562 121.652344 104.476562 121.183594 102.71875 121.535156 C 100.027344 122.117188 98.152344 124.6875 96.28125 127.136719 C 95.109375 128.65625 93.351562 130.988281 92.414062 130.988281 C 91.476562 130.988281 89.605469 128.65625 88.550781 127.136719 C 86.675781 124.6875 84.6875 122.234375 81.992188 121.652344 C 81.640625 121.535156 81.175781 121.535156 80.824219 121.535156 C 78.480469 121.535156 76.136719 122.816406 73.796875 123.984375 C 72.039062 124.917969 69.347656 126.320312 68.527344 125.851562 C 67.707031 125.503906 67.121094 122.585938 66.769531 120.949219 C 66.183594 117.914062 65.484375 114.761719 63.257812 113.011719 C 61.03125 111.378906 57.753906 111.496094 54.59375 111.609375 C 52.835938 111.726562 49.675781 111.84375 49.207031 111.144531 C 48.621094 110.445312 49.441406 107.523438 49.792969 105.773438 C 50.613281 102.855469 51.3125 99.820312 50.144531 97.367188 C 48.972656 94.917969 45.925781 93.632812 43 92.464844 C 41.476562 91.765625 38.433594 90.597656 38.316406 89.78125 C 38.082031 88.964844 40.191406 86.511719 41.242188 85.226562 C 43.234375 82.894531 45.34375 80.441406 45.34375 77.757812 C 45.34375 75.070312 43.234375 72.621094 41.125 70.402344 C 39.957031 69.117188 37.847656 66.785156 38.082031 65.964844 C 38.316406 65.148438 41.125 63.863281 42.765625 63.164062 C 45.691406 61.878906 48.621094 60.597656 49.792969 58.144531 C 50.960938 55.691406 50.144531 52.65625 49.324219 49.738281 C 48.855469 47.988281 48.035156 45.070312 48.621094 44.371094 C 49.207031 43.550781 52.367188 43.667969 54.242188 43.667969 C 57.285156 43.785156 60.566406 43.785156 62.554688 42.152344 C 64.78125 40.402344 65.367188 37.25 65.949219 34.214844 C 66.300781 32.460938 66.886719 29.542969 67.589844 29.195312 C 68.410156 28.726562 71.21875 30.128906 72.859375 30.945312 C 75.671875 32.34375 78.480469 33.746094 81.175781 33.164062 C 83.867188 32.578125 85.742188 30.011719 87.613281 27.558594 C 88.550781 26.042969 90.308594 23.707031 91.246094 23.707031 C 92.179688 23.707031 94.054688 26.042969 95.109375 27.558594 C 96.980469 30.011719 98.972656 32.460938 101.664062 33.046875 C 104.359375 33.628906 107.167969 32.113281 109.863281 30.710938 C 111.738281 29.777344 114.429688 28.375 115.25 28.84375 C 116.070312 29.195312 116.65625 32.113281 117.003906 33.863281 C 117.589844 36.898438 118.292969 40.050781 120.519531 41.800781 C 122.742188 43.4375 126.023438 43.320312 129.183594 43.203125 C 130.941406 43.085938 134.101562 42.96875 134.570312 43.667969 C 135.15625 44.371094 134.335938 47.289062 133.984375 49.039062 C 133.164062 51.957031 132.460938 54.992188 133.632812 57.445312 C 134.804688 59.894531 137.847656 61.179688 140.777344 62.347656 C 142.300781 63.046875 145.34375 64.214844 145.460938 65.03125 C 145.695312 65.847656 143.585938 68.300781 142.53125 69.585938 C 140.542969 71.921875 138.433594 74.371094 138.433594 77.054688 C 138.433594 79.742188 140.542969 82.191406 142.648438 84.410156 C 143.820312 85.695312 145.929688 88.03125 145.695312 88.847656 C 145.460938 89.664062 142.648438 90.949219 141.011719 91.648438 C 140.660156 91.765625 140.308594 92 139.957031 92.117188 C 140.308594 92.234375 140.542969 92.347656 140.894531 92.464844 C 142.296875 93.050781 143.585938 93.984375 144.640625 95.152344 C 147.335938 93.867188 149.675781 92.464844 150.261719 89.898438 C 150.964844 86.746094 148.503906 83.945312 146.164062 81.257812 C 144.875 79.859375 143.117188 77.875 143.117188 76.941406 C 143.117188 76.003906 144.875 74.019531 146.046875 72.503906 C 148.386719 69.820312 150.730469 67.015625 150.027344 63.863281 C 149.207031 60.714844 145.8125 59.3125 142.53125 57.910156 C 140.777344 57.09375 138.199219 56.160156 137.847656 55.226562 C 137.378906 54.410156 138.082031 51.957031 138.550781 50.089844 C 139.371094 46.820312 140.308594 43.085938 138.199219 40.515625 C 136.210938 38.066406 132.578125 38.300781 128.949219 38.417969 C 126.960938 38.53125 124.148438 38.648438 123.328125 37.949219 C 122.507812 37.25 121.921875 34.679688 121.574219 32.8125 C 120.871094 29.425781 120.167969 25.925781 117.238281 24.523438 C 114.3125 23.125 111.035156 24.875 107.753906 26.507812 C 106 27.441406 103.65625 28.609375 102.71875 28.375 C 101.664062 28.144531 100.027344 26.042969 98.855469 24.523438 C 96.746094 21.839844 94.523438 19.039062 91.246094 19.039062 C 87.964844 19.039062 85.859375 21.957031 83.632812 24.875 C 82.460938 26.390625 80.941406 28.492188 79.886719 28.726562 C 78.832031 28.960938 76.488281 27.792969 74.734375 26.859375 C 71.570312 25.222656 68.175781 23.589844 65.25 24.992188 C 62.320312 26.390625 61.617188 29.894531 61.03125 33.394531 C 60.683594 35.265625 60.214844 37.832031 59.394531 38.53125 C 58.691406 39.117188 55.996094 39.117188 54.125 39 C 50.496094 38.882812 46.746094 38.882812 44.757812 41.453125 C 42.648438 44.019531 43.703125 47.753906 44.640625 51.023438 C 45.109375 52.773438 45.808594 55.226562 45.460938 56.042969 C 44.992188 56.976562 42.53125 58.027344 40.773438 58.84375 C 37.496094 60.246094 34.21875 61.765625 33.515625 64.914062 C 32.8125 68.066406 35.273438 70.871094 37.613281 73.554688 C 38.902344 74.957031 40.65625 76.941406 40.65625 77.875 C 40.65625 78.808594 38.902344 80.792969 37.730469 82.308594 C 35.386719 84.996094 33.046875 87.796875 33.75 90.949219 C 34.570312 94.101562 37.964844 95.5 41.242188 96.902344 C 43 97.71875 45.574219 98.652344 45.925781 99.585938 C 46.394531 100.402344 45.691406 102.972656 45.226562 104.722656 C 44.40625 107.992188 43.46875 111.726562 45.574219 114.296875 C 47.566406 116.746094 51.195312 116.515625 54.828125 116.398438 C 56.816406 116.28125 59.628906 116.164062 60.449219 116.863281 C 61.265625 117.449219 61.851562 120.132812 62.203125 122 C 62.90625 125.386719 63.609375 128.886719 66.535156 130.289062 C 69.464844 131.691406 72.742188 129.9375 76.023438 128.304688 C 77.777344 127.371094 80.121094 126.203125 81.058594 126.4375 C 82.109375 126.671875 83.75 128.773438 84.921875 130.289062 C 87.027344 133.089844 89.253906 135.894531 92.53125 135.894531 C 95.8125 135.894531 97.917969 132.972656 100.144531 130.054688 C 101.199219 128.421875 102.71875 126.320312 103.773438 126.085938 Z M 103.773438 126.085938 "/>
<g clip-path="url(#clip3)" clip-rule="nonzero">
<path style=" stroke:none;fill-rule:nonzero;fill:rgb(42.349243%,78.039551%,19.999695%);fill-opacity:1;" d="M 154.125 117.796875 C 154.710938 116.863281 155.0625 115.695312 155.0625 114.414062 C 155.0625 110.792969 152.019531 107.875 148.152344 107.875 L 144.054688 107.875 C 144.171875 107.058594 144.289062 106.359375 144.171875 105.890625 C 143.9375 103.90625 143.351562 98.652344 139.019531 96.667969 C 138.082031 96.203125 137.03125 95.96875 136.09375 95.96875 C 135.976562 95.96875 135.859375 95.96875 135.742188 95.96875 C 134.335938 96.085938 132.929688 96.550781 131.761719 97.484375 C 128.949219 99.703125 129.066406 102.972656 129.183594 104.257812 C 129.183594 104.375 129.183594 104.605469 129.183594 104.722656 L 129.183594 105.308594 C 128.597656 106.589844 126.84375 109.277344 126.140625 110.328125 C 125.789062 110.445312 125.320312 110.558594 124.96875 110.675781 C 124.148438 110.328125 123.210938 110.09375 122.273438 110.09375 L 117.589844 110.09375 C 115.015625 110.09375 112.90625 112.195312 112.90625 114.761719 L 112.90625 128.773438 C 112.90625 131.339844 115.015625 133.441406 117.589844 133.441406 L 122.273438 133.441406 C 123.445312 133.441406 124.382812 132.972656 125.203125 132.390625 C 125.320312 132.390625 125.320312 132.390625 125.4375 132.390625 C 125.90625 132.390625 126.375 132.390625 126.84375 132.390625 C 127.074219 132.390625 127.308594 132.390625 127.542969 132.390625 C 128.011719 132.742188 128.714844 133.089844 129.652344 133.324219 C 130.003906 133.441406 130.472656 133.441406 130.824219 133.441406 L 144.875 133.441406 C 148.621094 133.441406 151.667969 130.40625 151.667969 126.671875 C 151.667969 126.671875 151.667969 126.554688 151.667969 126.554688 C 152.484375 125.386719 152.953125 124.101562 152.953125 122.585938 C 152.953125 122.351562 152.953125 122.234375 152.953125 122 C 153.65625 120.949219 154.007812 119.78125 154.007812 118.5 C 154.242188 118.265625 154.125 118.03125 154.125 117.796875 Z M 122.273438 128.773438 L 117.589844 128.773438 L 117.589844 114.761719 L 122.273438 114.761719 Z M 148.152344 116.515625 C 148.152344 116.515625 149.441406 117.566406 149.441406 118.5 C 149.441406 119.667969 148.503906 120.601562 147.21875 120.601562 C 147.21875 120.601562 148.386719 121.535156 148.386719 122.703125 C 148.386719 123.867188 147.449219 124.800781 146.28125 124.800781 C 146.28125 124.800781 147.101562 125.738281 147.101562 126.902344 C 147.101562 128.070312 146.164062 129.003906 144.992188 129.003906 L 130.941406 129.003906 C 130.238281 128.773438 129.652344 128.1875 128.949219 127.953125 C 128.832031 127.953125 128.480469 127.835938 128.011719 127.835938 C 127.660156 127.835938 127.308594 127.835938 126.960938 127.835938 L 126.960938 115.113281 C 128.011719 114.761719 129.183594 114.414062 129.183594 114.414062 C 129.417969 113.828125 133.75 107.523438 133.75 106.242188 C 133.75 105.773438 133.75 105.425781 133.75 104.957031 C 133.75 103.671875 133.398438 102.273438 134.570312 101.339844 C 134.921875 100.988281 135.390625 100.753906 135.976562 100.753906 C 135.976562 100.753906 136.09375 100.753906 136.09375 100.753906 C 136.445312 100.753906 136.796875 100.871094 137.148438 100.988281 C 139.019531 101.804688 139.371094 104.722656 139.605469 106.359375 C 139.722656 107.292969 138.316406 112.195312 138.082031 112.546875 L 148.269531 112.546875 C 149.441406 112.546875 150.496094 113.246094 150.496094 114.414062 C 150.378906 115.582031 149.441406 116.515625 148.152344 116.515625 Z M 148.152344 116.515625 "/>
</g>
</g>
</svg>
