<?xml version="1.0" encoding="UTF-8"?>
<svg xmlns="http://www.w3.org/2000/svg" xmlns:xlink="http://www.w3.org/1999/xlink" width="187.5pt" height="187.499995pt" viewBox="0 0 187.5 187.499995" version="1.2">
<defs>
<clipPath id="clip1">
  <path d="M 18.75 32.25 L 168.75 32.25 L 168.75 155.25 L 18.75 155.25 Z M 18.75 32.25 "/>
</clipPath>
</defs>
<g id="surface1">
<g clip-path="url(#clip1)" clip-rule="nonzero">
<path style=" stroke:none;fill-rule:nonzero;fill:rgb(42.349243%,78.42865%,12.159729%);fill-opacity:1;" d="M 163.613281 63.054688 L 23.894531 63.054688 L 23.894531 44.617188 C 23.894531 40.589844 27.171875 37.3125 31.195312 37.3125 L 156.3125 37.3125 C 160.339844 37.3125 163.613281 40.589844 163.613281 44.617188 Z M 104.164062 106.839844 C 104.164062 106.777344 104.199219 106.722656 104.25 106.707031 C 116.433594 102.792969 122.523438 97.105469 125.394531 93.335938 C 128.214844 97.039062 134.136719 102.585938 145.886719 106.492188 L 121.902344 129.8125 L 111.675781 119.292969 L 108.042969 122.824219 L 120.035156 135.160156 C 120.503906 135.644531 121.144531 135.917969 121.816406 135.929688 C 121.828125 135.929688 121.839844 135.929688 121.851562 135.929688 C 122.511719 135.929688 123.144531 135.671875 123.617188 135.210938 L 146.628906 112.835938 L 146.628906 125.441406 C 146.628906 133.027344 143.113281 140.03125 137.226562 144.171875 C 135.515625 145.375 131.425781 147.515625 126 150.050781 C 125.617188 150.230469 125.175781 150.230469 124.792969 150.050781 C 119.367188 147.515625 115.277344 145.375 113.566406 144.171875 C 107.679688 140.03125 104.164062 133.027344 104.164062 125.441406 Z M 156.3125 32.25 L 31.195312 32.25 C 24.375 32.25 18.828125 37.796875 18.828125 44.617188 L 18.828125 121.171875 C 18.828125 127.992188 24.375 133.539062 31.195312 133.539062 L 100.242188 133.539062 C 101.972656 139.519531 105.601562 144.761719 110.652344 148.3125 C 113.308594 150.183594 119.308594 153.078125 122.648438 154.640625 C 123.523438 155.046875 124.457031 155.25 125.394531 155.25 C 126.335938 155.25 127.269531 155.046875 128.144531 154.640625 C 131.484375 153.078125 137.480469 150.183594 140.140625 148.3125 C 147.375 143.226562 151.695312 134.675781 151.695312 125.441406 L 151.695312 106.839844 C 151.695312 104.566406 150.246094 102.574219 148.09375 101.882812 C 142.066406 99.945312 137.097656 97.382812 133.316406 94.257812 C 130.257812 91.730469 128.777344 89.46875 128.164062 88.347656 C 127.613281 87.332031 126.550781 86.703125 125.394531 86.703125 C 124.242188 86.703125 123.179688 87.332031 122.628906 88.347656 C 122.015625 89.46875 120.535156 91.730469 117.476562 94.257812 C 113.695312 97.382812 108.722656 99.945312 102.699219 101.882812 C 100.546875 102.574219 99.097656 104.566406 99.097656 106.839844 L 99.097656 125.441406 C 99.097656 126.460938 99.152344 127.472656 99.253906 128.472656 L 31.195312 128.472656 C 27.171875 128.472656 23.894531 125.199219 23.894531 121.171875 L 23.894531 68.121094 L 163.613281 68.121094 L 163.613281 121.25 C 163.613281 125.234375 160.375 128.472656 156.390625 128.472656 L 156.390625 133.539062 C 163.167969 133.539062 168.679688 128.027344 168.679688 121.25 L 168.679688 44.617188 C 168.679688 37.796875 163.132812 32.25 156.3125 32.25 "/>
</g>
<path style=" stroke:none;fill-rule:nonzero;fill:rgb(42.349243%,78.42865%,12.159729%);fill-opacity:1;" d="M 82.933594 110.503906 L 82.933594 105.441406 L 38.023438 105.441406 L 38.023438 110.503906 L 82.933594 110.503906 "/>
</g>
</svg>
