<?xml version="1.0" encoding="UTF-8"?>
<svg xmlns="http://www.w3.org/2000/svg" xmlns:xlink="http://www.w3.org/1999/xlink" width="187.5pt" height="187.499995pt" viewBox="0 0 187.5 187.499995" version="1.2">
<defs>
<clipPath id="clip1">
  <path d="M 115 68 L 168.75 68 L 168.75 138 L 115 138 Z M 115 68 "/>
</clipPath>
<clipPath id="clip2">
  <path d="M 18.75 37 L 88 37 L 88 107 L 18.75 107 Z M 18.75 37 "/>
</clipPath>
</defs>
<g id="surface1">
<path style=" stroke:none;fill-rule:nonzero;fill:rgb(42.349243%,78.039551%,19.999695%);fill-opacity:1;" d="M 37.5 95.472656 C 39.421875 96.746094 41.535156 97.824219 43.75 98.609375 C 43.78125 115.328125 43.78125 131.558594 43.78125 131.558594 L 53.125 131.558594 L 53.125 137.828125 L 43.78125 137.828125 C 40.332031 137.828125 37.5 134.988281 37.5 131.558594 Z M 76.53125 56.316406 L 112.5 56.316406 C 115.949219 56.316406 118.75 59.15625 118.75 62.585938 L 118.75 131.558594 L 128.125 131.558594 L 128.125 137.828125 L 78.125 137.828125 L 78.125 131.558594 L 112.5 131.558594 L 112.5 62.585938 L 79.65625 62.585938 C 78.875 60.367188 77.800781 58.242188 76.53125 56.316406 Z M 76.53125 56.316406 "/>
<g clip-path="url(#clip1)" clip-rule="nonzero">
<path style=" stroke:none;fill-rule:nonzero;fill:rgb(42.349243%,78.039551%,19.999695%);fill-opacity:1;" d="M 143.75 75.128906 C 144.402344 75.128906 145.476562 75.746094 145.800781 76.269531 L 161.359375 102.296875 C 161.945312 103.277344 162.5 105.269531 162.5 106.476562 L 162.5 131.558594 C 162.5 131.589844 153.125 131.558594 153.125 131.558594 L 153.125 137.828125 L 162.46875 137.828125 C 165.984375 137.828125 168.75 135.050781 168.75 131.558594 L 168.75 106.476562 C 168.75 104.125 167.902344 101.023438 166.699219 99.066406 L 151.140625 73.039062 C 149.707031 70.621094 146.582031 68.855469 143.75 68.855469 L 115.625 68.855469 L 115.625 75.128906 Z M 143.75 75.128906 "/>
</g>
<path style=" stroke:none;fill-rule:nonzero;fill:rgb(42.349243%,78.039551%,19.999695%);fill-opacity:1;" d="M 137.46875 81.398438 C 134.050781 81.398438 131.25 84.140625 131.25 87.601562 L 131.25 106.542969 C 131.25 109.972656 134.015625 112.746094 137.5 112.746094 L 165.625 112.746094 L 165.625 106.476562 L 137.5 106.476562 C 137.46875 106.476562 137.5 87.601562 137.5 87.601562 C 137.5 87.632812 153.125 87.667969 153.125 87.667969 L 153.125 81.398438 Z M 137.46875 81.398438 "/>
<path style=" stroke:none;fill-rule:evenodd;fill:rgb(42.349243%,78.039551%,19.999695%);fill-opacity:1;" d="M 65.625 150.367188 C 57 150.367188 50 143.347656 50 134.691406 C 50 126.039062 57 119.019531 65.625 119.019531 C 74.25 119.019531 81.25 126.039062 81.25 134.691406 C 81.25 143.347656 74.25 150.367188 65.625 150.367188 Z M 65.625 144.097656 C 70.800781 144.097656 75 139.886719 75 134.691406 C 75 129.5 70.800781 125.289062 65.625 125.289062 C 60.449219 125.289062 56.25 129.5 56.25 134.691406 C 56.25 139.886719 60.449219 144.097656 65.625 144.097656 Z M 65.625 144.097656 "/>
<path style=" stroke:none;fill-rule:evenodd;fill:rgb(42.349243%,78.039551%,19.999695%);fill-opacity:1;" d="M 140.625 150.367188 C 132 150.367188 125 143.347656 125 134.691406 C 125 126.039062 132 119.019531 140.625 119.019531 C 149.25 119.019531 156.25 126.039062 156.25 134.691406 C 156.25 143.347656 149.25 150.367188 140.625 150.367188 Z M 140.625 144.097656 C 145.800781 144.097656 150 139.886719 150 134.691406 C 150 129.5 145.800781 125.289062 140.625 125.289062 C 135.449219 125.289062 131.25 129.5 131.25 134.691406 C 131.25 139.886719 135.449219 144.097656 140.625 144.097656 Z M 140.625 144.097656 "/>
<g clip-path="url(#clip2)" clip-rule="nonzero">
<path style=" stroke:none;fill-rule:evenodd;fill:rgb(42.349243%,78.039551%,19.999695%);fill-opacity:1;" d="M 53.125 106.476562 C 34.148438 106.476562 18.75 91.03125 18.75 71.992188 C 18.75 52.953125 34.148438 37.507812 53.125 37.507812 C 72.101562 37.507812 87.5 52.953125 87.5 71.992188 C 87.5 91.03125 72.101562 106.476562 53.125 106.476562 Z M 53.125 100.207031 C 68.652344 100.207031 81.25 87.570312 81.25 71.992188 C 81.25 56.414062 68.652344 43.777344 53.125 43.777344 C 37.597656 43.777344 25 56.414062 25 71.992188 C 25 87.570312 37.597656 100.207031 53.125 100.207031 Z M 53.125 100.207031 "/>
</g>
<path style=" stroke:none;fill-rule:evenodd;fill:rgb(42.349243%,78.039551%,19.999695%);fill-opacity:1;" d="M 63.800781 52.59375 L 52.507812 67.617188 L 42.511719 60.039062 L 38.769531 65.070312 L 53.742188 76.367188 L 68.78125 56.347656 Z M 63.800781 52.59375 "/>
</g>
</svg>
